<?xml version="1.0" encoding="UTF-8"?>
<svg version="1.1" xmlns="http://www.w3.org/2000/svg" width="308" height="389">
<path d="M0 0 C101.64 0 203.28 0 308 0 C308 128.37 308 256.74 308 389 C206.36 389 104.72 389 0 389 C0 260.63 0 132.26 0 0 Z " fill="#B3B3B3" transform="translate(0,0)"/>
<path d="M0 0 C101.64 0 203.28 0 308 0 C308 128.37 308 256.74 308 389 C206.36 389 104.72 389 0 389 C0 260.63 0 132.26 0 0 Z M34 26 C34 136.22 34 246.44 34 360 C112.54 360 191.08 360 272 360 C272 249.78 272 139.56 272 26 C193.46 26 114.92 26 34 26 Z " fill="#B3B3B3" transform="translate(0,0)"/>
<path d="M0 0 C1.38638672 0.60134766 1.38638672 0.60134766 2.80078125 1.21484375 C17.60814495 8.44050213 28.59445659 21.50069307 34 37 C38.18543936 50.8104389 37.95102579 67.77342543 32 81 C31.59910156 81.92425781 31.19820313 82.84851563 30.78515625 83.80078125 C23.55949787 98.60814495 10.49930693 109.59445659 -5 115 C-18.8104389 119.18543936 -35.77342543 118.95102579 -49 113 C-49.92425781 112.59910156 -50.84851563 112.19820313 -51.80078125 111.78515625 C-66.60814495 104.55949787 -77.59445659 91.49930693 -83 76 C-87.18543936 62.1895611 -86.95102579 45.22657457 -81 32 C-80.59910156 31.07574219 -80.19820313 30.15148437 -79.78515625 29.19921875 C-72.55949787 14.39185505 -59.49930693 3.40554341 -44 -2 C-30.1895611 -6.18543936 -13.22657457 -5.95102579 0 0 Z " fill="#7F7F7F" transform="translate(176,102)"/>
<path d="M0 0 C78.54 0 157.08 0 238 0 C238 110.22 238 220.44 238 334 C159.46 334 80.92 334 0 334 C0 223.78 0 113.56 0 0 Z M4 4 C4 111.58 4 219.16 4 330 C79.9 330 155.8 330 234 330 C234 222.42 234 114.84 234 4 C158.1 4 82.2 4 4 4 Z " fill="#7F7F7F" transform="translate(34,26)"/>
<path d="M0 0 C50.82 0 101.64 0 154 0 C154 1.32 154 2.64 154 4 C103.18 4 52.36 4 0 4 C0 2.68 0 1.36 0 0 Z " fill="#7F7F7F" transform="translate(75,270)"/>
<path d="M0 0 C50.49 0 100.98 0 153 0 C153 1.32 153 2.64 153 4 C102.51 4 52.02 4 0 4 C0 2.68 0 1.36 0 0 Z " fill="#7F7F7F" transform="translate(75,263)"/>
<path d="M0 0 C50.49 0 100.98 0 153 0 C153 1.32 153 2.64 153 4 C102.51 4 52.02 4 0 4 C0 2.68 0 1.36 0 0 Z " fill="#7F7F7F" transform="translate(75,256)"/>
</svg>
